<svg width="14" height="18" viewBox="0 0 14 18" fill="none" xmlns="http://www.w3.org/2000/svg">
<path d="M5.65703 9.21738H2.1774L1.0138 2.09503C1.00635 2.05364 1.00181 2.01114 1.00026 1.96825C0.987315 1.31533 1.45464 0.862545 1.85958 1.16139L12.7717 9.21738L1.85958 17.2734C1.45935 17.5695 0.997909 17.1294 1.00026 16.4882C1.00145 16.431 1.008 16.3742 1.01969 16.3198L1.88312 11.9341" fill="white"/>
<path d="M5.65703 9.21738H2.1774L1.0138 2.09503C1.00635 2.05364 1.00181 2.01114 1.00026 1.96825C0.987315 1.31533 1.45464 0.862545 1.85958 1.16139L12.7717 9.21738L1.85958 17.2734C1.45935 17.5695 0.997909 17.1294 1.00026 16.4882C1.00145 16.431 1.008 16.3742 1.01969 16.3198L1.88312 11.9341" stroke="black" stroke-linecap="round" stroke-linejoin="round"/>
</svg>
