<svg width="17" height="17" viewBox="0 0 17 17" fill="none" xmlns="http://www.w3.org/2000/svg">
<path d="M8.5 16C9.4851 16.0013 10.4607 15.8079 11.3708 15.4309C12.281 15.0539 13.1076 14.5007 13.8032 13.8032C14.5007 13.1076 15.0539 12.281 15.4309 11.3708C15.8079 10.4607 16.0013 9.4851 16 8.5C16.0012 7.5149 15.8078 6.53927 15.4308 5.62916C15.0538 4.71906 14.5007 3.89242 13.8032 3.19675C13.1076 2.49927 12.281 1.94613 11.3708 1.56914C10.4607 1.19215 9.4851 0.99873 8.5 1.00001C7.5149 0.99875 6.53927 1.19218 5.62916 1.56917C4.71906 1.94616 3.89242 2.49928 3.19675 3.19675C2.49928 3.89242 1.94616 4.71906 1.56917 5.62916C1.19218 6.53927 0.99875 7.5149 1.00001 8.5C0.99873 9.4851 1.19215 10.4607 1.56914 11.3708C1.94613 12.281 2.49927 13.1076 3.19675 13.8032C3.89242 14.5007 4.71906 15.0538 5.62916 15.4308C6.53927 15.8078 7.5149 16.0012 8.5 16V16Z" stroke="#D74149" stroke-width="0.5" stroke-linejoin="round"/>
<path fill-rule="evenodd" clip-rule="evenodd" d="M8.5 12.5C8.63261 12.5 8.75979 12.4473 8.85355 12.3536C8.94732 12.2598 9 12.1326 9 12C9 11.8674 8.94732 11.7402 8.85355 11.6464C8.75979 11.5527 8.63261 11.5 8.5 11.5C8.36739 11.5 8.24021 11.5527 8.14645 11.6464C8.05268 11.7402 8 11.8674 8 12C8 12.1326 8.05268 12.2598 8.14645 12.3536C8.24021 12.4473 8.36739 12.5 8.5 12.5Z" fill="#D74149"/>
<path d="M8.5 4V10" stroke="#D74149" stroke-width="0.5" stroke-linecap="round" stroke-linejoin="round"/>
</svg>
