<svg width="40" height="25" viewBox="0 0 40 25" fill="none" xmlns="http://www.w3.org/2000/svg">
<path d="M37.3398 24.999H3.42159C2.72962 24.999 2.06599 24.7356 1.57669 24.2667C1.08739 23.7978 0.8125 23.1619 0.8125 22.4989L0.8125 11.9817H2.69213L3.11611 10.9984H4.06517L4.48806 11.9776H8.18645V11.2328L8.51694 11.9828H10.4368L10.7673 11.2203V11.9807H19.9567V10.3723H20.1307C20.2546 10.3765 20.2905 10.3869 20.2905 10.5848V11.9828H25.0445V11.6088C25.5304 11.8453 26.1033 11.9838 26.711 11.9838L26.8143 11.9828H26.8089H28.8092L29.2375 11.0036H30.1866L30.6051 11.9828H34.46V11.0515L35.0427 11.9828H38.1258V5.83254H35.0743V6.55861L34.647 5.83254H31.5096V6.55861L31.1171 5.83254H26.8806C26.2387 5.80145 25.5992 5.92803 25.0227 6.20026L25.0455 6.19088V5.83254H22.1234V6.19088C21.7697 5.92374 21.3229 5.79595 20.8743 5.83358H20.8808H10.202L9.48556 7.42218L8.74958 5.83358H5.38602V6.55965L5.01532 5.83358H2.14531L0.815761 8.75037V2.5001C0.815761 1.83704 1.09065 1.20112 1.57995 0.732264C2.06925 0.263403 2.73288 0 3.42486 0H37.3431C38.0351 0 38.6987 0.263403 39.188 0.732264C39.6773 1.20112 39.9522 1.83704 39.9522 2.5001V13.4172H37.916C37.8834 13.4151 37.8442 13.4151 37.8062 13.4151C37.3344 13.4151 36.8963 13.5506 36.531 13.7829L36.5397 13.7777V13.4172H33.5284C33.0579 13.3923 32.5925 13.5204 32.2075 13.7808L32.214 13.7766V13.4162H26.8371V13.7766C26.397 13.5388 25.8998 13.4146 25.3945 13.4162H25.3521H25.3543H21.807V13.7766C21.3436 13.4922 20.7936 13.3656 20.2459 13.4172L20.2557 13.4162H16.2866L15.3778 14.3579L14.5276 13.4162H8.59847V19.5706H14.4168L15.3528 18.6143L16.2344 19.5706H19.8208V18.1299H20.3209C20.8018 18.1479 21.2813 18.071 21.7298 17.9039L21.7059 17.9122V19.5727H24.6629V17.9695H24.8053C24.9858 17.9695 25.0042 17.9757 25.0042 18.1508V19.5737H33.9904L34.1002 19.5758C34.6155 19.5758 35.096 19.4279 35.4961 19.1748L35.4863 19.18V19.5737H38.3367L38.4726 19.5758C39.0064 19.5758 39.5141 19.4706 39.975 19.28L39.95 19.2893V22.4999C39.95 23.163 39.6751 23.7989 39.1858 24.2677C38.6965 24.7366 38.0329 25 37.3409 25L37.3398 24.999ZM23.7562 18.7081H22.6495V14.2964H25.189C25.6477 14.2557 26.1095 14.3296 26.5295 14.511L26.5121 14.5048C26.8523 14.6839 27.0796 15.0256 27.0796 15.4173L27.0774 15.4871V15.484L27.0785 15.5236C27.0785 16.0298 26.7599 16.4653 26.3033 16.6549L26.2947 16.658C26.5132 16.733 26.6958 16.8611 26.8317 17.0268L26.8339 17.0288C26.9874 17.2723 27.0516 17.5579 27.0165 17.8403L27.0176 17.8341V18.707H25.9131V18.1549C25.9654 17.8543 25.9024 17.5458 25.7359 17.2861L25.7391 17.2913C25.6244 17.2079 25.4931 17.1476 25.3534 17.1141C25.2136 17.0806 25.0682 17.0746 24.926 17.0965L24.9325 17.0955H23.7562V18.707V18.7081ZM23.7562 15.2079V16.1986H25.0934C25.2822 16.2153 25.4722 16.1829 25.6435 16.1048L25.6369 16.108C25.7069 16.0647 25.7644 16.0053 25.8043 15.9353C25.8442 15.8652 25.8651 15.7867 25.8652 15.7069L25.8642 15.6829V15.684C25.8695 15.6044 25.8513 15.5249 25.8114 15.4549C25.7716 15.3848 25.7119 15.327 25.6391 15.2881L25.6369 15.2871C25.472 15.2164 25.2907 15.1877 25.1108 15.2038H25.1151L23.7562 15.2079ZM13.9449 18.707H9.58884V14.2964H14.0134L15.3669 15.7423L16.766 14.2964H20.2807C21.5287 14.2964 22.1353 14.7725 22.1353 15.7496C22.1353 16.7444 21.5081 17.2278 20.222 17.2278H18.8468V18.706H16.7084L15.3539 17.2486L13.946 18.707H13.9449ZM17.751 14.7694L16.0616 16.509L17.751 18.3049V14.7694ZM10.6857 16.9101V17.7872H13.3905L14.6407 16.4934L13.4383 15.2079H10.6847V16.01H13.1002V16.909L10.6857 16.9101ZM18.8468 15.209V16.3319H20.2676C20.7025 16.3319 20.9525 16.1194 20.9525 15.7486C20.9525 15.3944 20.7199 15.2079 20.2796 15.2079L18.8468 15.209ZM38.4563 18.7091H36.3321V17.7612H38.4476C38.6059 17.7821 38.7664 17.7424 38.8944 17.6507L38.8933 17.6518C38.9342 17.6155 38.9667 17.5715 38.989 17.5225C39.0113 17.4736 39.0227 17.4208 39.0227 17.3674V17.3507C39.0228 17.298 39.0108 17.2459 38.9878 17.198C38.9647 17.1502 38.9309 17.1077 38.889 17.0736C38.7765 16.9957 38.6377 16.9608 38.4998 16.9757H38.5019L38.2987 16.9695C37.305 16.9445 36.1799 16.9153 36.1799 15.61C36.1799 14.9746 36.5951 14.2964 37.7573 14.2964H39.95V15.2361H37.9443C37.7893 15.2194 37.6328 15.2493 37.4964 15.3215L37.5007 15.3194C37.447 15.3532 37.4039 15.4003 37.3758 15.4557C37.3476 15.511 37.3356 15.5726 37.3409 15.634V15.6329V15.6444C37.3409 15.7146 37.364 15.783 37.407 15.8399C37.4499 15.8967 37.5105 15.9391 37.5801 15.9611L37.5822 15.9621C37.7201 16.0028 37.8644 16.0198 38.0084 16.0121H38.0051L38.602 16.0267C39.0518 15.9837 39.5013 16.112 39.8532 16.384L39.85 16.3819C39.8826 16.4069 39.9109 16.434 39.9359 16.4642L39.9369 16.4653L39.95 18.1445C39.7672 18.3492 39.5346 18.5077 39.2728 18.606C39.011 18.7042 38.728 18.7393 38.4487 18.7081L38.4563 18.7091ZM34.1632 18.7091H32.0194V17.7612H34.1524C34.312 17.7812 34.4735 17.7416 34.6035 17.6507L34.6014 17.6518C34.6419 17.6153 34.6743 17.5713 34.6964 17.5224C34.7184 17.4734 34.7297 17.4207 34.7296 17.3674V17.357C34.7296 17.3034 34.7176 17.2504 34.6946 17.2015C34.6715 17.1527 34.6379 17.1091 34.5959 17.0736C34.4814 16.9956 34.3409 16.9608 34.2013 16.9757H34.2035L34.0013 16.9695C33.0109 16.9445 31.8868 16.9153 31.8868 15.61C31.8868 14.9746 32.2999 14.2964 33.4599 14.2964H35.6646V15.2361H33.6469C33.493 15.2196 33.3376 15.2495 33.2022 15.3215L33.2066 15.3194C33.1495 15.357 33.104 15.4088 33.0751 15.4691C33.0461 15.5295 33.0347 15.5962 33.0421 15.6623C33.0494 15.7283 33.0753 15.7912 33.1168 15.8444C33.1584 15.8975 33.2142 15.9389 33.2783 15.9642L33.2805 15.9653C33.4201 16.0063 33.5663 16.0232 33.7121 16.0153H33.7088L34.3013 16.0298C34.7536 15.9881 35.2051 16.1166 35.5602 16.3882L35.5569 16.3851C35.6764 16.5113 35.7673 16.6598 35.8238 16.8214C35.8803 16.9829 35.9012 17.1539 35.8852 17.3236V17.3184C35.8885 18.2383 35.3069 18.707 34.16 18.707L34.1632 18.7091ZM31.3606 18.7091H27.6862V14.2954H31.3574V15.2069H28.7842V16.009H31.2976V16.908H28.7842V17.7851L31.3606 17.7893V18.706V18.7091ZM33.5023 11.1192H31.2617L30.8334 10.1358H28.5483L28.133 11.1192H26.8458C26.2678 11.1484 25.6986 10.9739 25.2456 10.6286L25.251 10.6317C25.0358 10.4041 24.8725 10.136 24.7714 9.84457C24.6703 9.55311 24.6337 9.24467 24.664 8.93892L24.6629 8.94725C24.6349 8.63586 24.6733 8.32227 24.7757 8.02554C24.8781 7.72881 25.0424 7.45513 25.2586 7.22113L25.2564 7.22322C25.4847 7.03194 25.7517 6.88773 26.0406 6.79956C26.3296 6.71139 26.6344 6.68114 26.9361 6.7107L26.9274 6.70965H27.9927V7.65032H26.9491C26.7964 7.63147 26.6412 7.64513 26.4947 7.69032C26.3481 7.73552 26.2137 7.81114 26.1011 7.91179L26.1022 7.91075C25.8698 8.19597 25.757 8.55413 25.7859 8.91496V8.90975C25.7512 9.28046 25.8599 9.65045 26.0914 9.94937L26.0881 9.94521C26.3042 10.1144 26.5809 10.196 26.8589 10.1723H26.8545H27.3481L28.9037 6.7034H30.5562L32.4184 10.8702V6.7034H34.0937L36.0266 9.77437V6.7034H37.1572V11.1119H35.5874L33.5001 7.80137V11.1119L33.5023 11.1192ZM29.6984 7.45448L28.9407 9.21288H30.4594L29.6984 7.45448ZM19.0457 11.1171H17.9456V6.70653H20.4764C20.9384 6.66059 21.4047 6.73585 21.8255 6.92425L21.8092 6.918C21.9784 7.00765 22.1194 7.13909 22.2177 7.29865C22.316 7.4582 22.3678 7.64006 22.368 7.82533L22.3658 7.89825V7.89512V7.92741C22.3659 8.168 22.2935 8.4035 22.1574 8.60565C22.0212 8.8078 21.8271 8.968 21.5983 9.06705L21.5896 9.07017C21.8081 9.14934 21.9918 9.27643 22.1321 9.43894L22.1342 9.44102C22.2893 9.68538 22.3533 9.97294 22.3158 10.2567L22.3169 10.2504V11.1161H21.2069L21.2026 10.5598V10.4765C21.2421 10.2045 21.1793 9.9279 21.0254 9.69624L21.0286 9.70145C20.9135 9.62039 20.7827 9.562 20.6439 9.52963C20.5051 9.49727 20.3609 9.49158 20.2198 9.5129L20.2263 9.51186H19.0468V11.1161L19.0457 11.1171ZM19.0457 7.62428V8.60348H20.3807C20.5693 8.62309 20.7598 8.59056 20.9297 8.50973L20.9243 8.51181C20.9939 8.47125 21.0515 8.4142 21.0915 8.34615C21.1314 8.27811 21.1525 8.20135 21.1526 8.12326L21.1515 8.09409V8.09513C21.157 8.01598 21.1382 7.937 21.0975 7.86796C21.0567 7.79891 20.9957 7.74281 20.9221 7.70657L20.9199 7.70553C20.7545 7.63752 20.5743 7.60892 20.3948 7.62219H20.3981L19.0457 7.62428ZM7.39611 11.1171H5.16099L4.7381 10.1338H2.44645L2.02029 11.1171H0.824458L2.79541 6.70653H4.42936L6.30029 10.8807V6.70653H8.09513L9.53448 9.69728L10.8575 6.70653H12.6893V11.115H11.5587L11.5565 7.6649L9.96172 11.1161H8.99636L7.3972 7.65969V11.1161L7.39611 11.1171ZM3.58684 7.45448L2.83781 9.21288H4.34021L3.58684 7.45448ZM24.1204 11.1161H22.9985V6.70653H24.1215V11.115L24.1204 11.1161ZM17.178 11.1161H13.5101V6.70653H17.1846V7.62324H14.6103V8.41806H17.1226V9.32331H14.6081V10.2046H17.1824V11.115L17.178 11.1161Z" fill="white"/>
</svg>
