<svg width="26" height="23" viewBox="0 0 26 23" fill="none" xmlns="http://www.w3.org/2000/svg">
<path d="M12.791 8.48405C12.1781 8.48405 11.5789 8.64815 11.0692 8.95559C10.5596 9.26303 10.1623 9.70001 9.92774 10.2113C9.69317 10.7225 9.63179 11.2851 9.75138 11.8278C9.87096 12.3706 10.1661 12.8691 10.5996 13.2604C11.033 13.6517 11.5852 13.9182 12.1864 14.0262C12.7876 14.1341 13.4108 14.0787 13.9771 13.8669C14.5434 13.6552 15.0274 13.2965 15.368 12.8364C15.7085 12.3763 15.8903 11.8354 15.8903 11.282C15.8903 10.9146 15.8101 10.5507 15.6544 10.2113C15.4986 9.8718 15.2703 9.56336 14.9825 9.30355C14.6947 9.04373 14.3531 8.83764 13.9771 8.69703C13.6011 8.55642 13.198 8.48405 12.791 8.48405ZM25.2004 5.71997C25.1939 4.84872 25.0161 3.98544 24.6756 3.17024C24.4247 2.57371 24.0366 2.03199 23.5369 1.58081C23.0371 1.12964 22.4371 0.779266 21.7763 0.552817C20.8733 0.245342 19.9171 0.0849092 18.952 0.0789738C17.3399 -7.45058e-08 16.865 0 12.791 0C8.71707 0 8.24219 -7.45058e-08 6.6301 0.0789738C5.66504 0.0849092 4.70879 0.245342 3.80581 0.552817C3.14505 0.779266 2.54499 1.12964 2.04523 1.58081C1.54547 2.03199 1.15737 2.57371 0.906536 3.17024C0.565951 3.98544 0.388242 4.84872 0.381667 5.71997C0.294189 7.17534 0.294189 7.60406 0.294189 11.282C0.294189 14.9599 0.294189 15.3886 0.381667 16.844C0.395119 17.7183 0.572587 18.5842 0.906536 19.405C1.15626 19.9988 1.54404 20.5374 2.04375 20.9845C2.54137 21.4384 3.14271 21.7887 3.80581 22.0111C4.70879 22.3186 5.66504 22.4791 6.6301 22.485C8.24219 22.564 8.71707 22.564 12.791 22.564C16.865 22.564 17.3399 22.564 18.952 22.485C19.9171 22.4791 20.8733 22.3186 21.7763 22.0111C22.4394 21.7887 23.0407 21.4384 23.5383 20.9845C24.0381 20.5374 24.4258 19.9988 24.6756 19.405C25.0158 18.5858 25.1935 17.7189 25.2004 16.844C25.2879 15.3886 25.2879 14.9599 25.2879 11.282C25.2879 7.60406 25.2879 7.17534 25.2004 5.71997ZM22.0262 14.7456C21.9861 15.4418 21.8215 16.1275 21.5389 16.7763C21.2962 17.3175 20.9356 17.8091 20.4783 18.2219C20.021 18.6348 19.4765 18.9604 18.877 19.1794C18.1516 19.4203 17.3877 19.5537 16.6151 19.5742H8.96701C8.19437 19.5537 7.43051 19.4203 6.70508 19.1794C6.08536 18.9715 5.52572 18.6398 5.06799 18.2091C4.61519 17.8044 4.2655 17.3154 4.04325 16.7763C3.77526 16.1221 3.63161 15.4317 3.61835 14.7343V7.8297C3.63161 7.13227 3.77526 6.44188 4.04325 5.78766C4.27354 5.22819 4.64094 4.72295 5.11798 4.30972C5.56828 3.90314 6.10931 3.58778 6.70508 3.38459C7.43051 3.14362 8.19437 3.01027 8.96701 2.98973H16.6151C17.3877 3.01027 18.1516 3.14362 18.877 3.38459C19.4967 3.5925 20.0564 3.92418 20.5141 4.35485C20.9669 4.75959 21.3166 5.24853 21.5389 5.78766C21.8058 6.44256 21.9535 7.13217 21.9762 7.8297V11.282C21.9762 13.6061 22.0637 13.843 22.0262 14.7343V14.7456ZM20.0267 6.35176C19.8779 5.98733 19.6433 5.65638 19.3391 5.38175C19.0349 5.10711 18.6683 4.89532 18.2647 4.761C17.7104 4.58755 17.1266 4.50353 16.5401 4.51279H9.04199C8.45247 4.51799 7.86862 4.6173 7.31742 4.80613C6.91994 4.93435 6.55723 5.13749 6.25342 5.40204C5.94961 5.66659 5.71165 5.98649 5.55537 6.34047C5.37388 6.84294 5.28522 7.36893 5.29293 7.89739V14.6666C5.30532 15.1982 5.41511 15.7243 5.61785 16.2235C5.76664 16.5879 6.00124 16.9189 6.30545 17.1935C6.60966 17.4681 6.97624 17.6799 7.37991 17.8143C7.91311 17.9913 8.4742 18.0903 9.04199 18.1076H16.5401C17.1296 18.1024 17.7135 18.0031 18.2647 17.8143C18.6683 17.6799 19.0349 17.4681 19.3391 17.1935C19.6433 16.9189 19.8779 16.5879 20.0267 16.2235C20.2359 15.7259 20.3459 15.1988 20.3516 14.6666V7.89739C20.352 7.36465 20.2418 6.83657 20.0267 6.34047V6.35176ZM12.791 15.5917C12.1647 15.5917 11.5446 15.4801 10.9661 15.2634C10.3876 15.0467 9.86217 14.7291 9.41987 14.3287C8.97758 13.9284 8.62713 13.4532 8.38859 12.9304C8.15004 12.4076 8.0281 11.8474 8.02975 11.282C8.02975 10.4291 8.31005 9.59544 8.83515 8.88646C9.36026 8.17749 10.1066 7.62511 10.9796 7.29925C11.8526 6.9734 12.8131 6.88871 13.7395 7.05592C14.6658 7.22313 15.5164 7.63471 16.1836 8.23856C16.8507 8.84242 17.3044 9.61139 17.4871 10.4481C17.6699 11.2849 17.5736 12.1518 17.2104 12.9391C16.8471 13.7264 16.2333 14.3987 15.4466 14.8709C14.6599 15.3431 13.7357 15.5939 12.791 15.5917ZM17.7898 7.81841C17.5135 7.79202 17.2579 7.67425 17.0721 7.48782C16.8863 7.30138 16.7835 7.05947 16.7835 6.80868C16.7835 6.55789 16.8863 6.31597 17.0721 6.12953C17.2579 5.9431 17.5135 5.82534 17.7898 5.79894C18.066 5.82534 18.3217 5.9431 18.5075 6.12953C18.6933 6.31597 18.7961 6.55789 18.7961 6.80868C18.7961 7.05947 18.6933 7.30138 18.5075 7.48782C18.3217 7.67425 18.066 7.79202 17.7898 7.81841Z" fill="white"/>
</svg>
