<svg width="41" height="25" viewBox="0 0 41 25" fill="none" xmlns="http://www.w3.org/2000/svg">
<rect x="0.599854" width="40.1667" height="25" rx="1" fill="white"/>
<path d="M17.7915 6.65234H24.5793V18.7982H17.7915V6.65234Z" fill="#FF5F00"/>
<path d="M18.2225 12.7253C18.2225 10.2575 19.3861 8.06866 21.1745 6.65232C19.8602 5.6223 18.201 5 16.3909 5C12.1026 5 8.6333 8.45488 8.6333 12.7253C8.6333 16.9956 12.1026 20.4506 16.3908 20.4506C18.2009 20.4506 19.8601 19.8283 21.1745 18.7982C19.3861 17.4034 18.2225 15.1931 18.2225 12.7253Z" fill="#EB001B"/>
<path d="M33.7375 12.7253C33.7375 16.9956 30.2683 20.4506 25.98 20.4506C24.17 20.4506 22.5108 19.8283 21.1963 18.7982C23.0064 17.382 24.1485 15.1931 24.1485 12.7253C24.1485 10.2575 22.9848 8.06866 21.1963 6.65232C22.5107 5.62229 24.17 5 25.98 5C30.2683 5 33.7376 8.47639 33.7376 12.7253H33.7375Z" fill="#F79E1B"/>
</svg>
