<svg width="33" height="25" viewBox="0 0 33 25" fill="none" xmlns="http://www.w3.org/2000/svg">
<path d="M17.11 10.411C17.11 11.367 16.5245 11.917 15.4922 11.917H14.1366V8.906H15.4983C16.5245 8.906 17.11 9.45 17.11 10.411ZM19.76 13.889C19.76 14.35 20.1616 14.65 20.7922 14.65C21.5956 14.65 22.1981 14.145 22.1981 13.433V13.005L20.8866 13.088C20.1445 13.138 19.76 13.411 19.76 13.889ZM32.3843 2.667V22.223C32.3841 22.9303 32.1018 23.6085 31.5996 24.1086C31.0975 24.6087 30.4164 24.8897 29.7062 24.89H2.92811C2.21791 24.8897 1.53688 24.6087 1.03469 24.1086C0.532509 23.6085 0.250266 22.9303 0.25 22.223V2.667C0.250266 1.95975 0.532509 1.28154 1.03469 0.781439C1.53688 0.281337 2.21791 0.000265037 2.92811 0H29.7062C30.4164 0.000265037 31.0975 0.281337 31.5996 0.781439C32.1018 1.28154 32.3841 1.95975 32.3843 2.667ZM7.38059 9.233C7.84953 9.272 8.31748 9 8.6137 8.655C8.90391 8.299 9.0937 7.822 9.04349 7.338C8.63078 7.355 8.11765 7.61 7.82142 7.966C7.5533 8.272 7.32536 8.766 7.38059 9.233ZM10.7616 13.372C10.7506 13.361 9.66808 12.95 9.65703 11.705C9.64599 10.666 10.5106 10.166 10.5497 10.138C10.0587 9.416 9.29955 9.338 9.03746 9.321C8.35664 9.282 7.77623 9.704 7.45289 9.704C7.12352 9.704 6.63248 9.337 6.09726 9.349C5.74783 9.35825 5.40692 9.45848 5.10848 9.63971C4.81003 9.82095 4.56446 10.0769 4.3962 10.382C3.66517 11.638 4.20642 13.493 4.91536 14.515C5.26079 15.02 5.67953 15.576 6.2268 15.554C6.74495 15.532 6.95181 15.221 7.5764 15.221C8.20702 15.221 8.38576 15.554 8.93203 15.549C9.50139 15.538 9.85285 15.044 10.2043 14.538C10.5889 13.96 10.7506 13.405 10.7626 13.371L10.7616 13.372ZM18.315 10.406C18.315 8.928 17.2827 7.917 15.8096 7.917H12.9537V15.495H14.1366V12.906H15.7714C17.2666 12.906 18.315 11.884 18.315 10.406ZM23.3358 11.722C23.3358 10.628 22.4541 9.922 21.1045 9.922C19.8493 9.922 18.9235 10.639 18.8893 11.616H19.9548C20.0441 11.149 20.4789 10.844 21.0704 10.844C21.7954 10.844 22.1971 11.177 22.1971 11.8V12.217L20.724 12.306C19.3513 12.389 18.6102 12.951 18.6102 13.923C18.6102 14.906 19.3744 15.556 20.4729 15.556C21.215 15.556 21.9008 15.184 22.2131 14.589H22.2352V15.5H23.3288V11.722H23.3358ZM29.0375 9.994H27.8385L26.4497 14.472H26.4276L25.0389 9.994H23.7947L25.797 15.511L25.6916 15.844C25.5128 16.411 25.2176 16.633 24.6934 16.633C24.5778 16.6309 24.4623 16.6252 24.347 16.616V17.527C24.4143 17.549 24.7095 17.555 24.7989 17.555C25.9537 17.555 26.4949 17.116 26.9689 15.788L29.0375 9.994Z" fill="white"/>
</svg>
