<svg width="26" height="23" viewBox="0 0 26 23" fill="none" xmlns="http://www.w3.org/2000/svg">
<path d="M0.951172 11.2819C0.951172 15.9015 4.02777 19.8702 8.43027 21.6151C8.39513 20.8273 8.42402 19.8816 8.64775 19.0244C8.88798 18.1086 10.2555 12.877 10.2555 12.877C10.2555 12.877 9.85631 12.1566 9.85631 11.092C9.85631 9.42011 10.9295 8.17146 12.266 8.17146C13.4025 8.17146 13.9516 8.94223 13.9516 9.86521C13.9516 10.8968 13.2229 12.4398 12.8482 13.869C12.5351 15.0657 13.5127 16.0418 14.8203 16.0418C17.1876 16.0418 18.782 13.2964 18.782 10.0436C18.782 7.57097 16.9376 5.72025 13.5829 5.72025C9.79276 5.72025 7.43158 8.27238 7.43158 11.1231C7.43158 12.106 7.75253 12.7991 8.25524 13.3359C8.48639 13.5824 8.51851 13.6816 8.43485 13.9647C8.37492 14.1723 8.23728 14.672 8.18028 14.87C8.09711 15.1558 7.84068 15.2579 7.55467 15.1524C5.80894 14.5089 4.99591 12.7828 4.99591 10.8423C4.99591 7.63752 7.98934 3.7947 13.9258 3.7947C18.6962 3.7947 21.836 6.91161 21.836 10.2574C21.836 14.6831 19.111 17.9894 15.0942 17.9894C13.7453 17.9894 12.4764 17.331 12.0417 16.5832C12.0417 16.5832 11.3163 19.1826 11.1627 19.6845C10.8978 20.5543 10.3792 21.4237 9.90512 22.1013C11.0548 22.4083 12.2474 22.5641 13.4463 22.564C20.346 22.564 25.9405 17.5129 25.9405 11.2819C25.9405 5.05111 20.346 0 13.4463 0C6.54583 0 0.951172 5.05111 0.951172 11.2819Z" fill="white"/>
</svg>
