<svg width="41" height="42" viewBox="0 0 41 42" fill="none" xmlns="http://www.w3.org/2000/svg">
<path d="M21.8165 0H18.3165C18.0054 0 17.8499 0.155556 17.8499 0.466667V41.5333C17.8499 41.8444 18.0054 42 18.3165 42H21.8165C22.1276 42 22.2832 41.8444 22.2832 41.5333V0.466667C22.2832 0.155556 22.1276 0 21.8165 0Z" fill="white"/>
<path d="M39.6666 18.7833H0.466636C0.155525 18.7833 -3.016e-05 18.9389 -3.016e-05 19.25V22.75C-3.016e-05 23.0611 0.155525 23.2167 0.466636 23.2167H39.6666C39.9777 23.2167 40.1333 23.0611 40.1333 22.75V19.25C40.1333 18.9389 39.9777 18.7833 39.6666 18.7833Z" fill="white"/>
</svg>
