<svg width="42" height="25" viewBox="0 0 42 25" fill="none" xmlns="http://www.w3.org/2000/svg">
<rect x="0.020752" width="41.1708" height="25" rx="1" fill="white"/>
<path d="M24.3389 6.06773C23.6805 5.3204 22.4903 5 20.9677 5H16.5488C16.3982 5.00001 16.2525 5.05353 16.1379 5.15094C16.0234 5.24836 15.9474 5.38327 15.9238 5.53144L14.0839 17.1525C14.0473 17.3816 14.2255 17.5891 14.4587 17.5891H17.1868L17.8719 13.2614L17.8507 13.397C17.8995 13.0911 18.1622 12.8654 18.4733 12.8654H19.7697C22.3164 12.8654 24.3106 11.8353 24.8931 8.85536C24.9104 8.76722 24.9254 8.68144 24.9383 8.59764C24.8648 8.55886 24.8648 8.55886 24.9383 8.59764C25.1118 7.49622 24.9371 6.74649 24.3389 6.06773" fill="white"/>
<path d="M24.8935 8.85538C24.311 11.8349 22.3169 12.8655 19.7701 12.8655H18.4733C18.1622 12.8655 17.8995 13.0911 17.8511 13.397L16.9988 18.778C16.9669 18.9785 17.1227 19.1602 17.3264 19.1602H19.6261C19.7579 19.1602 19.8853 19.1134 19.9854 19.0281C20.0856 18.9429 20.1519 18.8249 20.1725 18.6953L20.1949 18.5786L20.6283 15.843L20.6562 15.6919C20.6768 15.5623 20.7432 15.4443 20.8433 15.3591C20.9434 15.2738 21.0708 15.227 21.2026 15.227H21.5467C23.7745 15.227 25.5189 14.3257 26.0286 11.719C26.2414 10.6297 26.1313 9.7202 25.5684 9.08138C25.3977 8.88789 25.1857 8.72809 24.9387 8.59766C24.9253 8.68188 24.9108 8.76724 24.8935 8.85538V8.85538Z" fill="#2790C3"/>
<path d="M24.3287 8.35489C24.2379 8.32848 24.1462 8.3051 24.0538 8.28478C23.957 8.2636 23.8597 8.24518 23.7619 8.22954C23.4119 8.17312 23.0295 8.14649 22.6189 8.14649H19.155C19.0723 8.1463 18.9907 8.16478 18.9162 8.20055C18.8352 8.23905 18.7649 8.29662 18.7113 8.36828C18.6577 8.43994 18.6225 8.52353 18.6086 8.61181L17.8723 13.2608L17.8511 13.3963C17.8995 13.0904 18.1622 12.8647 18.4734 12.8647H19.7701C22.3169 12.8647 24.311 11.8346 24.8935 8.85466C24.9108 8.76653 24.9254 8.68113 24.9387 8.59694C24.7912 8.5194 24.6316 8.45239 24.4596 8.39559C24.4162 8.38127 24.3726 8.3677 24.3287 8.35489" fill="#1F264F"/>
</svg>
