<svg width="23" height="23" viewBox="0 0 23 23" fill="none" xmlns="http://www.w3.org/2000/svg">
<path d="M22.4383 9.25313C20.3122 9.25777 18.2383 8.65254 16.5095 7.52293V15.4012C16.509 16.8603 16.0204 18.2845 15.1091 19.4833C14.1979 20.6821 12.9074 21.5984 11.4103 22.1097C9.91312 22.621 8.28067 22.7028 6.73118 22.3443C5.1817 21.9858 3.78904 21.2041 2.73943 20.1036C1.68982 19.0031 1.03328 17.6363 0.857612 16.186C0.681942 14.7357 0.995511 13.271 1.75639 11.9878C2.51727 10.7046 3.68919 9.66395 5.11545 9.00511C6.54171 8.34628 8.15432 8.10061 9.73766 8.30097V12.2634C9.01312 12.0554 8.2351 12.0617 7.51469 12.2814C6.79429 12.501 6.16834 12.9229 5.72625 13.4866C5.28416 14.0504 5.04852 14.7273 5.05299 15.4206C5.05747 16.1139 5.30182 16.7882 5.75116 17.3472C6.2005 17.9062 6.83184 18.3213 7.55503 18.5332C8.27822 18.7451 9.05627 18.743 9.77808 18.5272C10.4999 18.3114 11.1285 17.8929 11.5742 17.3315C12.0199 16.7701 12.2599 16.0945 12.2599 15.4012V0H16.5095C16.5066 0.327587 16.5367 0.654726 16.5994 0.977285C16.747 1.69735 17.0541 2.38234 17.5017 2.99037C17.9493 3.59839 18.5282 4.11667 19.2027 4.51349C20.1625 5.09277 21.2877 5.40152 22.4383 5.40129V9.25313Z" fill="white"/>
</svg>
