<svg width="31" height="22" viewBox="0 0 31 22" fill="none" xmlns="http://www.w3.org/2000/svg">
<path d="M30.3509 2.60263C29.2232 3.05142 28.0271 3.346 26.8022 3.47659C28.078 2.78968 29.0576 1.70194 29.5189 0.405908C28.3061 1.05243 26.9792 1.50794 25.5955 1.75277C24.4684 0.674119 22.8628 0 21.0856 0C17.6734 0 14.9069 2.48512 14.9069 5.5502C14.9069 5.98527 14.9616 6.40883 15.0669 6.81516C9.93202 6.58362 5.37943 4.374 2.33202 1.01599C1.8003 1.83573 1.49562 2.78926 1.49562 3.8063C1.49562 5.73196 2.58647 7.43073 4.24423 8.42611C3.26307 8.39851 2.30349 8.16045 1.44562 7.73181C1.44527 7.75506 1.44527 7.77831 1.44527 7.80166C1.44527 10.4908 3.57498 12.7342 6.40135 13.2441C5.49153 13.4664 4.53718 13.4989 3.61122 13.3392C4.39739 15.5443 6.67921 17.1489 9.38277 17.1938C7.26823 18.6824 4.60408 19.5697 1.70948 19.5697C1.2107 19.5697 0.71897 19.5434 0.235596 19.4922C2.96985 21.067 6.21749 21.9858 9.70663 21.9858C21.0713 21.9858 27.2857 13.5283 27.2857 6.19388C27.2857 5.95315 27.2799 5.71379 27.2679 5.4758C28.4775 4.69028 29.5215 3.71734 30.3509 2.60263Z" fill="white"/>
</svg>
