<svg width="42" height="25" viewBox="0 0 42 25" fill="none" xmlns="http://www.w3.org/2000/svg">
<path d="M33.9895 11.1219C33.9895 11.1219 34.5324 13.1981 34.6547 13.633H32.2681L33.4119 11.2053C33.3977 11.2224 33.6473 10.6971 33.7901 10.3736L33.9895 11.1219ZM41.5583 2.67879V22.3212C41.5579 23.0316 41.1963 23.7128 40.5529 24.2151C39.9095 24.7174 39.037 24.9997 38.1271 25H3.81868C2.90876 24.9997 2.03622 24.7174 1.39281 24.2151C0.749405 23.7128 0.387792 23.0316 0.387451 22.3212V2.67879C0.387792 1.96841 0.749405 1.2872 1.39281 0.784893C2.03622 0.28258 2.90876 0.000266208 3.81868 0H38.1271C39.037 0.000266208 39.9095 0.28258 40.5529 0.784893C41.1963 1.2872 41.5579 1.96841 41.5583 2.67879ZM11.2884 16.6965L15.8054 8.03636H12.7679L9.95937 13.9514L9.65189 12.7521L8.65095 8.76758C8.48627 8.21515 7.97937 8.05846 7.35025 8.03636H2.7264L2.67622 8.20912C3.73515 8.41193 4.7509 8.73333 5.69189 9.16332L8.25083 16.6965H11.2884ZM18.0363 16.7075L19.8375 8.03636H16.9646L15.1712 16.7075H18.0363ZM28.0354 13.873C28.0495 12.8857 27.2776 12.1324 25.627 11.5127C24.6196 11.1159 24.0046 10.8487 24.0046 10.4409C24.0188 10.0723 24.527 9.69265 25.6553 9.69265C26.3902 9.67646 27.1204 9.78904 27.7922 10.0221L28.0495 10.1165L28.4432 8.24126C27.6219 7.99579 26.7496 7.87082 25.8701 7.87264C23.032 7.87264 21.0378 9.05585 21.0237 10.7403C21.0018 11.9847 22.453 12.6768 23.5402 13.0946C24.6479 13.5185 25.0274 13.7977 25.0274 14.1714C25.0133 14.7519 24.1268 15.0191 23.3047 15.0191C22.161 15.0191 21.546 14.8795 20.6094 14.556L20.2312 14.4164L19.8311 16.364C20.5026 16.6041 21.7467 16.816 23.0333 16.827C26.0489 16.8321 28.0148 15.6659 28.0367 13.87L28.0354 13.873ZM38.1271 16.7075L35.8113 8.03636H33.5881C32.9024 8.03636 32.38 8.19305 32.0867 8.75653L27.8192 16.7085H30.8349C30.8349 16.7085 31.3277 15.6368 31.4357 15.4088H35.1243C35.2105 15.7162 35.4678 16.7085 35.4678 16.7085L38.1271 16.7075Z" fill="white"/>
</svg>
