<svg width="36" height="23" viewBox="0 0 36 23" fill="none" xmlns="http://www.w3.org/2000/svg">
<path d="M35.2066 3.53339C35.0019 2.85044 34.6027 2.22782 34.0486 1.72752C33.4946 1.22723 32.805 0.866717 32.0487 0.681884C29.2797 0 18.1355 0 18.1355 0C18.1355 0 6.99066 0.0206403 4.22167 0.702524C3.46531 0.887368 2.77577 1.2479 2.22172 1.74822C1.66767 2.24854 1.26845 2.87118 1.0638 3.55415C0.226249 7.99659 -0.0986538 14.7658 1.0868 19.0306C1.29147 19.7135 1.6907 20.3361 2.24475 20.8364C2.79879 21.3367 3.48832 21.6972 4.24467 21.8821C7.01365 22.564 18.1582 22.564 18.1582 22.564C18.1582 22.564 29.3026 22.564 32.0714 21.8821C32.8278 21.6973 33.5173 21.3368 34.0714 20.8365C34.6255 20.3362 35.0247 19.7135 35.2294 19.0306C36.1128 14.5818 36.385 7.81675 35.2066 3.53339Z" fill="white"/>
<path d="M14.5881 16.1174L23.8332 11.2823L14.5881 6.44727V16.1174Z" fill="black"/>
</svg>
