<svg width="25" height="29" viewBox="0 0 25 29" fill="none" xmlns="http://www.w3.org/2000/svg">
<path d="M12.445 11.3633C11.8346 11.3633 11.2379 11.5641 10.7303 11.9403C10.2228 12.3165 9.82717 12.8512 9.59357 13.4768C9.35998 14.1024 9.29886 14.7908 9.41794 15.455C9.53703 16.1191 9.83098 16.7292 10.2626 17.208C10.6942 17.6869 11.2442 18.0129 11.8429 18.145C12.4416 18.2772 13.0621 18.2094 13.6261 17.9502C14.1901 17.6911 14.6721 17.2522 15.0112 16.6892C15.3503 16.1262 15.5314 15.4642 15.5314 14.787C15.5314 14.3374 15.4515 13.8922 15.2964 13.4768C15.1413 13.0614 14.914 12.684 14.6274 12.3661C14.3408 12.0481 14.0006 11.7959 13.6261 11.6239C13.2516 11.4518 12.8503 11.3633 12.445 11.3633ZM24.8029 7.98088C24.7963 6.91476 24.6194 5.85837 24.2802 4.86082C24.0304 4.13086 23.6439 3.46796 23.1462 2.91587C22.6485 2.36377 22.051 1.93502 21.393 1.65792C20.4937 1.28167 19.5414 1.08535 18.5804 1.07808C16.975 0.981445 16.5021 0.981445 12.445 0.981445C8.38793 0.981445 7.91502 0.981445 6.30961 1.07808C5.34856 1.08535 4.39628 1.28167 3.49704 1.65792C2.83903 1.93502 2.24146 2.36377 1.74378 2.91587C1.24609 3.46796 0.859598 4.13086 0.609805 4.86082C0.270634 5.85837 0.0936622 6.91476 0.0871149 7.98088C-8.9407e-08 9.76181 0 10.2864 0 14.787C0 19.2877 -8.9407e-08 19.8123 0.0871149 21.5932C0.100511 22.6631 0.277243 23.7227 0.609805 24.7271C0.858491 25.4537 1.24466 26.1128 1.7423 26.6599C2.23785 27.2153 2.8367 27.644 3.49704 27.9162C4.39628 28.2924 5.34856 28.4887 6.30961 28.496C7.91502 28.5926 8.38793 28.5926 12.445 28.5926C16.5021 28.5926 16.975 28.5926 18.5804 28.496C19.5414 28.4887 20.4937 28.2924 21.393 27.9162C22.0533 27.644 22.6521 27.2153 23.1477 26.6599C23.6453 26.1128 24.0315 25.4537 24.2802 24.7271C24.619 23.7246 24.796 22.6638 24.8029 21.5932C24.89 19.8123 24.89 19.2877 24.89 14.787C24.89 10.2864 24.89 9.76181 24.8029 7.98088ZM21.6419 19.0254C21.6019 19.8773 21.438 20.7165 21.1565 21.5104C20.9149 22.1726 20.5557 22.7742 20.1004 23.2794C19.645 23.7845 19.1027 24.183 18.5057 24.451C17.7833 24.7458 17.0226 24.909 16.2532 24.9342H8.63683C7.86739 24.909 7.1067 24.7458 6.38428 24.451C5.76714 24.1966 5.20982 23.7907 4.75399 23.2637C4.30307 22.7684 3.95483 22.1701 3.7335 21.5104C3.46663 20.7098 3.32357 19.865 3.31037 19.0116V10.5625C3.32357 9.7091 3.46663 8.86428 3.7335 8.06372C3.96284 7.3791 4.32871 6.76085 4.80377 6.25518C5.2522 5.75766 5.79099 5.37175 6.38428 5.12312C7.1067 4.82825 7.86739 4.66507 8.63683 4.63993H16.2532C17.0226 4.66507 17.7833 4.82825 18.5057 5.12312C19.1229 5.37754 19.6802 5.78341 20.136 6.31041C20.5869 6.80568 20.9352 7.40399 21.1565 8.06372C21.4223 8.86512 21.5694 9.70897 21.5921 10.5625V14.787C21.5921 17.631 21.6792 17.9209 21.6419 19.0116V19.0254ZM19.6507 8.754C19.5025 8.30805 19.2689 7.90308 18.9659 7.56701C18.663 7.23094 18.2979 6.97178 17.8959 6.80741C17.3439 6.59516 16.7626 6.49235 16.1785 6.50368H8.7115C8.12443 6.51005 7.543 6.63157 6.99409 6.86263C6.59825 7.01954 6.23705 7.26812 5.9345 7.59184C5.63195 7.91557 5.39498 8.30702 5.23934 8.74019C5.05861 9.35505 4.97032 9.9987 4.978 10.6454V18.9287C4.99034 19.5792 5.09967 20.223 5.30157 20.8339C5.44974 21.2798 5.68336 21.6848 5.98631 22.0209C6.28926 22.3569 6.65432 22.6161 7.05631 22.7805C7.5873 22.9971 8.14606 23.1183 8.7115 23.1394H16.1785C16.7656 23.1331 17.347 23.0115 17.8959 22.7805C18.2979 22.6161 18.663 22.3569 18.9659 22.0209C19.2689 21.6848 19.5025 21.2798 19.6507 20.8339C19.8589 20.225 19.9685 19.58 19.9742 18.9287V10.6454C19.9746 9.99346 19.8648 9.34725 19.6507 8.74019V8.754ZM12.445 20.0608C11.8213 20.0608 11.2037 19.9243 10.6276 19.6591C10.0515 19.3939 9.52827 19.0052 9.08781 18.5153C8.64736 18.0254 8.29836 17.4439 8.06081 16.8042C7.82325 16.1644 7.70182 15.4789 7.70345 14.787C7.70346 13.7434 7.98259 12.7232 8.50552 11.8557C9.02845 10.9881 9.77165 10.3122 10.6411 9.91344C11.5105 9.51469 12.467 9.41106 13.3895 9.61567C14.312 9.82028 15.1591 10.3239 15.8234 11.0629C16.4878 11.8018 16.9396 12.7428 17.1216 13.7667C17.3036 14.7906 17.2077 15.8514 16.846 16.8148C16.4842 17.7782 15.873 18.6009 15.0896 19.1787C14.3061 19.7565 13.3858 20.0635 12.445 20.0608ZM17.423 10.5487C17.1479 10.5164 16.8933 10.3723 16.7083 10.1442C16.5232 9.91604 16.4208 9.62001 16.4208 9.31312C16.4208 9.00624 16.5232 8.71021 16.7083 8.48207C16.8933 8.25393 17.1479 8.10983 17.423 8.07752C17.6981 8.10983 17.9527 8.25393 18.1377 8.48207C18.3228 8.71021 18.4251 9.00624 18.4251 9.31312C18.4251 9.62001 18.3228 9.91604 18.1377 10.1442C17.9527 10.3723 17.6981 10.5164 17.423 10.5487Z" fill="#E1306C"/>
</svg>
