<svg width="21" height="20" viewBox="0 0 21 20" fill="none" xmlns="http://www.w3.org/2000/svg">
<path d="M10 20.0009C8.68642 20.0022 7.38546 19.7444 6.17162 19.2424C4.95777 18.7403 3.85485 18.0037 2.926 17.0749C1.99716 16.146 1.26061 15.0431 0.75853 13.8293C0.256449 12.6154 -0.00131055 11.3145 5.01048e-06 10.0009V9.80088C0.0400133 7.84029 0.655299 5.93469 1.76939 4.3209C2.88348 2.70712 4.44726 1.45631 6.26636 0.72394C8.08547 -0.00843138 10.0797 -0.190075 12.0012 0.201585C13.9227 0.593244 15.6867 1.54094 17.074 2.92688C18.4737 4.32543 19.4271 6.10778 19.8134 8.04837C20.1997 9.98895 20.0017 12.0005 19.2443 13.8285C18.487 15.6565 17.2043 17.2187 15.5588 18.3174C13.9132 19.4162 11.9787 20.002 10 20.0009ZM10 11.4109L12.59 14.0009L14 12.5909L11.41 10.0009L14 7.41088L12.59 6.00088L10 8.59088L7.41001 6.00088L6.00001 7.41088L8.59 10.0009L6.00001 12.5909L7.41001 14.0009L10 11.4119V11.4109Z" fill="#CCCCCC"/>
</svg>
