<svg width="20" height="17" viewBox="0 0 20 17" fill="none" xmlns="http://www.w3.org/2000/svg">
<path d="M19.1938 3.3565C18.8886 2.69967 18.4486 2.10446 17.8983 1.60418C17.3476 1.10242 16.6983 0.703672 15.9857 0.429628C15.2468 0.144333 14.4543 -0.00169684 13.6542 1.48753e-05C12.5317 1.48753e-05 11.4366 0.285718 10.4849 0.825379C10.2572 0.954475 10.0409 1.09627 9.83597 1.25076C9.63105 1.09627 9.41475 0.954475 9.18706 0.825379C8.23534 0.285718 7.14018 1.48753e-05 6.0177 1.48753e-05C5.20942 1.48753e-05 4.42618 0.143925 3.68621 0.429628C2.97128 0.704749 2.32693 1.1005 1.77366 1.60418C1.22266 2.10389 0.782501 2.69925 0.478137 3.3565C0.161656 4.04007 0 4.76597 0 5.51303C0 6.21776 0.154825 6.95212 0.462199 7.69918C0.719483 8.3235 1.08833 8.97109 1.55964 9.62503C2.30644 10.6599 3.3333 11.7392 4.60833 12.8334C6.72124 14.6471 8.81366 15.8999 8.90246 15.9507L9.44207 16.2724C9.68114 16.4142 9.98851 16.4142 10.2276 16.2724L10.7672 15.9507C10.856 15.8978 12.9461 14.6471 15.0613 12.8334C16.3364 11.7392 17.3632 10.6599 18.11 9.62503C18.5813 8.97109 18.9524 8.3235 19.2075 7.69918C19.5148 6.95212 19.6697 6.21776 19.6697 5.51303C19.6719 4.76597 19.5103 4.04007 19.1938 3.3565ZM9.83597 14.5984C9.83597 14.5984 1.7304 9.77106 1.7304 5.51303C1.7304 3.3565 3.64978 1.60842 6.0177 1.60842C7.68207 1.60842 9.12559 2.47188 9.83597 3.7332C10.5463 2.47188 11.9899 1.60842 13.6542 1.60842C16.0221 1.60842 17.9415 3.3565 17.9415 5.51303C17.9415 9.77106 9.83597 14.5984 9.83597 14.5984Z" fill="black"/>
</svg>
