<svg width="15" height="17" viewBox="0 0 15 17" fill="none" xmlns="http://www.w3.org/2000/svg">
<path d="M13.0256 13.5453L13.0258 13.5458C13.3117 14.2894 13.4808 15.0724 13.5299 15.8787H13.1091C13.0019 14.2989 12.3915 12.8209 11.3547 11.6785C10.2067 10.4136 8.66859 9.70585 7.02173 9.70585C5.37487 9.70585 3.83673 10.4136 2.68871 11.6785C1.65191 12.8209 1.04153 14.2989 0.934407 15.8787H0.513244C0.561857 15.0762 0.732286 14.2883 1.0175 13.5482L1.01771 13.5477C1.34917 12.6847 1.82809 11.9034 2.42603 11.246L2.42686 11.2451C3.02802 10.5808 3.72492 10.0641 4.49852 9.70452L4.50116 9.70329L4.50883 9.69996C4.51931 9.69527 4.5342 9.68825 4.55143 9.67876L5.20775 9.31719L4.62195 8.84994C3.58099 8.01964 2.89041 6.65702 2.89041 5.10293C2.89041 2.51339 4.78396 0.5 7.02173 0.5C9.2595 0.5 11.1531 2.51339 11.1531 5.10293C11.1531 6.65713 10.4624 8.01947 9.42193 8.84754L8.83502 9.31465L9.49197 9.67668C9.50921 9.68617 9.52411 9.69319 9.5346 9.69789L9.54239 9.70127L9.54441 9.70222C10.3159 10.0619 11.0201 10.5844 11.6167 11.2431L11.6177 11.2442C12.216 11.9009 12.6949 12.6821 13.0256 13.5453ZM0.499925 16.2214L0.49997 16.2188L0.499925 16.2214ZM9.55357 9.70602C9.55478 9.70652 9.55403 9.70621 9.553 9.70578L9.55357 9.70602ZM13.8941 16.2247L14.0331 16.2743L13.8941 16.2247ZM4.48955 9.70822C4.48914 9.70839 4.48909 9.70841 4.48988 9.70808L4.48955 9.70822ZM4.38064 7.94104C5.07665 8.70792 6.0153 9.14205 7.02173 9.14205C8.02816 9.14205 8.96681 8.70792 9.66282 7.94104C10.3574 7.17574 10.7338 6.16532 10.7338 5.10293C10.7338 4.04054 10.3574 3.03011 9.66282 2.26482C8.96681 1.49793 8.02816 1.0638 7.02173 1.0638C6.0153 1.0638 5.07665 1.49793 4.38064 2.26482C3.68607 3.03011 3.30968 4.04054 3.30968 5.10293C3.30968 6.16532 3.68607 7.17574 4.38064 7.94104Z" fill="black" stroke="black"/>
</svg>
