<svg width="109" height="86" viewBox="0 0 109 86" fill="none" xmlns="http://www.w3.org/2000/svg">
<path d="M65.0568 22V13.2727H66.1136V17.1591H70.767V13.2727H71.8239V22H70.767V18.0966H66.1136V22H65.0568ZM71.9773 24.2727V33H70.9545L66.1989 26.1477H66.1136V33H65.0568V24.2727H66.0795L70.8523 31.142H70.9375V24.2727H71.9773Z" fill="black"/>
<path d="M107.42 29.6364C107.42 30.5568 107.254 31.3523 106.922 32.0227C106.589 32.6932 106.134 33.2102 105.554 33.5739C104.974 33.9375 104.313 34.1193 103.568 34.1193C102.824 34.1193 102.162 33.9375 101.582 33.5739C101.003 33.2102 100.547 32.6932 100.214 32.0227C99.8821 31.3523 99.7159 30.5568 99.7159 29.6364C99.7159 28.7159 99.8821 27.9205 100.214 27.25C100.547 26.5795 101.003 26.0625 101.582 25.6989C102.162 25.3352 102.824 25.1534 103.568 25.1534C104.313 25.1534 104.974 25.3352 105.554 25.6989C106.134 26.0625 106.589 26.5795 106.922 27.25C107.254 27.9205 107.42 28.7159 107.42 29.6364ZM106.398 29.6364C106.398 28.8807 106.271 28.2429 106.018 27.723C105.768 27.2031 105.429 26.8097 105 26.5426C104.574 26.2756 104.097 26.142 103.568 26.142C103.04 26.142 102.561 26.2756 102.132 26.5426C101.706 26.8097 101.366 27.2031 101.114 27.723C100.864 28.2429 100.739 28.8807 100.739 29.6364C100.739 30.392 100.864 31.0298 101.114 31.5497C101.366 32.0696 101.706 32.4631 102.132 32.7301C102.561 32.9972 103.04 33.1307 103.568 33.1307C104.097 33.1307 104.574 32.9972 105 32.7301C105.429 32.4631 105.768 32.0696 106.018 31.5497C106.271 31.0298 106.398 30.392 106.398 29.6364Z" fill="black"/>
<path d="M32.4205 7.63636C32.4205 8.55682 32.2543 9.35227 31.9219 10.0227C31.5895 10.6932 31.1335 11.2102 30.554 11.5739C29.9744 11.9375 29.3125 12.1193 28.5682 12.1193C27.8239 12.1193 27.1619 11.9375 26.5824 11.5739C26.0028 11.2102 25.5469 10.6932 25.2145 10.0227C24.8821 9.35227 24.7159 8.55682 24.7159 7.63636C24.7159 6.71591 24.8821 5.92045 25.2145 5.25C25.5469 4.57955 26.0028 4.0625 26.5824 3.69886C27.1619 3.33523 27.8239 3.15341 28.5682 3.15341C29.3125 3.15341 29.9744 3.33523 30.554 3.69886C31.1335 4.0625 31.5895 4.57955 31.9219 5.25C32.2543 5.92045 32.4205 6.71591 32.4205 7.63636ZM31.3977 7.63636C31.3977 6.88068 31.2713 6.2429 31.0185 5.72301C30.7685 5.20312 30.429 4.80966 30 4.54261C29.5739 4.27557 29.0966 4.14205 28.5682 4.14205C28.0398 4.14205 27.5611 4.27557 27.1321 4.54261C26.706 4.80966 26.3665 5.20312 26.1136 5.72301C25.8636 6.2429 25.7386 6.88068 25.7386 7.63636C25.7386 8.39205 25.8636 9.02983 26.1136 9.54972C26.3665 10.0696 26.706 10.4631 27.1321 10.7301C27.5611 10.9972 28.0398 11.1307 28.5682 11.1307C29.0966 11.1307 29.5739 10.9972 30 10.7301C30.429 10.4631 30.7685 10.0696 31.0185 9.54972C31.2713 9.02983 31.3977 8.39205 31.3977 7.63636Z" fill="black"/>
<path d="M1.05682 42V33.2727H2.11364V37.1591H6.76705V33.2727H7.82386V42H6.76705V38.0966H2.11364V42H1.05682ZM17.3033 37.6364C17.3033 38.5568 17.1371 39.3523 16.8047 40.0227C16.4723 40.6932 16.0163 41.2102 15.4368 41.5739C14.8572 41.9375 14.1953 42.1193 13.451 42.1193C12.7067 42.1193 12.0447 41.9375 11.4652 41.5739C10.8857 41.2102 10.4297 40.6932 10.0973 40.0227C9.76491 39.3523 9.59872 38.5568 9.59872 37.6364C9.59872 36.7159 9.76491 35.9205 10.0973 35.25C10.4297 34.5795 10.8857 34.0625 11.4652 33.6989C12.0447 33.3352 12.7067 33.1534 13.451 33.1534C14.1953 33.1534 14.8572 33.3352 15.4368 33.6989C16.0163 34.0625 16.4723 34.5795 16.8047 35.25C17.1371 35.9205 17.3033 36.7159 17.3033 37.6364ZM16.2805 37.6364C16.2805 36.8807 16.1541 36.2429 15.9013 35.723C15.6513 35.2031 15.3118 34.8097 14.8828 34.5426C14.4567 34.2756 13.9794 34.142 13.451 34.142C12.9226 34.142 12.4439 34.2756 12.0149 34.5426C11.5888 34.8097 11.2493 35.2031 10.9964 35.723C10.7464 36.2429 10.6214 36.8807 10.6214 37.6364C10.6214 38.392 10.7464 39.0298 10.9964 39.5497C11.2493 40.0696 11.5888 40.4631 12.0149 40.7301C12.4439 40.9972 12.9226 41.1307 13.451 41.1307C13.9794 41.1307 14.4567 40.9972 14.8828 40.7301C15.3118 40.4631 15.6513 40.0696 15.9013 39.5497C16.1541 39.0298 16.2805 38.392 16.2805 37.6364Z" fill="black"/>
<line x1="65.5" y1="72" x2="65.5" y2="86" stroke="black"/>
<line x1="70.5" y1="72" x2="70.5" y2="86" stroke="black"/>
<line x1="52.5" y1="41" x2="52.5" y2="60" stroke="black"/>
<path d="M59.5 32.5L48.5 39V62L68 73L79 67" stroke="black"/>
<path d="M18 34L28.5 27.5L48.5 39" stroke="black"/>
<path d="M26.5 14V28.5" stroke="black"/>
<path d="M30.5 14V28.5" stroke="black"/>
<path d="M76.5 32.5C76.9 32.5 84 36.8333 87.5 39V51.5" stroke="black"/>
<line x1="85.7481" y1="37.5681" x2="97.7481" y2="30.5681" stroke="black"/>
<line x1="87.7481" y1="41.5681" x2="99.7481" y2="34.5681" stroke="black"/>
</svg>
