<svg width="19" height="19" viewBox="0 0 19 19" fill="none" xmlns="http://www.w3.org/2000/svg">
<path d="M0 9.15258C0 13.1492 2.65997 16.5357 6.33326 17.7866V0.518555C2.65997 1.76942 0 5.15591 0 9.15258Z" fill="#428BC1"/>
<path d="M19 9.15258C19 5.15591 16.3717 1.76942 12.6667 0.518555V17.7866C16.3717 16.5357 19 13.1492 19 9.15258" fill="#ED4C5C"/>
<path d="M6.33301 17.7867C7.31466 18.1223 8.39132 18.3054 9.49964 18.3054C10.608 18.3054 11.6846 18.1223 12.6663 17.7867V0.518652C11.6846 0.183054 10.6396 0 9.49964 0C8.35965 0 7.31466 0.183054 6.33301 0.518652V17.7867" fill="#D9D9D9"/>
</svg>
