<svg width="19" height="17" viewBox="0 0 19 17" fill="none" xmlns="http://www.w3.org/2000/svg">
<path d="M17.4841 3.26476H13.7779C13.6026 2.35095 13.0742 1.52225 12.2862 0.92491C11.4981 0.327574 10.5009 0 9.47058 0C8.44028 0 7.44309 0.327574 6.65501 0.92491C5.86692 1.52225 5.3386 2.35095 5.16329 3.26476H1.45701C1.07059 3.26476 0.699992 3.40292 0.426749 3.64886C0.153506 3.89479 0 4.22835 0 4.57616V15.0673C0 15.4152 0.153506 15.7487 0.426749 15.9946C0.699992 16.2406 1.07059 16.3787 1.45701 16.3787H17.4841C17.8706 16.3787 18.2412 16.2406 18.5144 15.9946C18.7877 15.7487 18.9412 15.4152 18.9412 15.0673V4.57616C18.9412 4.22835 18.7877 3.89479 18.5144 3.64886C18.2412 3.40292 17.8706 3.26476 17.4841 3.26476V3.26476ZM9.47058 1.29766C10.1165 1.29877 10.7437 1.49238 11.2545 1.84826C11.7652 2.20414 12.1306 2.70224 12.2935 3.26476H6.64762C6.8106 2.70224 7.17598 2.20414 7.6867 1.84826C8.19741 1.49238 8.8247 1.29877 9.47058 1.29766V1.29766ZM17.4841 15.0673H1.45701V4.57616H17.4841V15.0673Z" fill="black"/>
</svg>
