<svg width="39" height="45" viewBox="0 0 39 45" fill="none" xmlns="http://www.w3.org/2000/svg">
<g filter="url(#filter0_d_235_2507)">
<path d="M17 38.1827C26.3891 38.1827 34 29.7697 34 19.3912C34 9.01259 26.3891 0.599609 17 0.599609C7.6109 0.599609 0 9.01259 0 19.3912C0 22.8131 0.8279 26.0246 2.2746 28.7869L0.85 37.2431L8.5 35.6684C11.0832 37.3203 14.0157 38.1877 17 38.1827Z" fill="#E50914"/>
</g>
<line x1="11.5" y1="18.8906" x2="21.5" y2="18.8906" stroke="white" stroke-linecap="round"/>
<line x1="23.5" y1="13.2578" x2="23.5" y2="24.4171" stroke="white" stroke-linecap="round"/>
<line x1="25.5" y1="14.3638" x2="25.5" y2="23.3122" stroke="white" stroke-linecap="round"/>
<line x1="27.5" y1="16.5752" x2="27.5" y2="21.1021" stroke="white" stroke-linecap="round"/>
<line x1="9.5" y1="13.2578" x2="9.5" y2="24.4171" stroke="white" stroke-linecap="round"/>
<line x1="7.5" y1="14.3638" x2="7.5" y2="23.3122" stroke="white" stroke-linecap="round"/>
<line x1="5.5" y1="16.5752" x2="5.5" y2="21.1021" stroke="white" stroke-linecap="round"/>
<defs>
<filter id="filter0_d_235_2507" x="0" y="0.599609" width="39" height="43.583" filterUnits="userSpaceOnUse" color-interpolation-filters="sRGB">
<feFlood flood-opacity="0" result="BackgroundImageFix"/>
<feColorMatrix in="SourceAlpha" type="matrix" values="0 0 0 0 0 0 0 0 0 0 0 0 0 0 0 0 0 0 127 0" result="hardAlpha"/>
<feOffset dx="3" dy="4"/>
<feGaussianBlur stdDeviation="1"/>
<feComposite in2="hardAlpha" operator="out"/>
<feColorMatrix type="matrix" values="0 0 0 0 0 0 0 0 0 0 0 0 0 0 0 0 0 0 0.25 0"/>
<feBlend mode="normal" in2="BackgroundImageFix" result="effect1_dropShadow_235_2507"/>
<feBlend mode="normal" in="SourceGraphic" in2="effect1_dropShadow_235_2507" result="shape"/>
</filter>
</defs>
</svg>
