<svg width="11" height="14" viewBox="0 0 11 14" fill="none" xmlns="http://www.w3.org/2000/svg">
<path d="M9.75184 5.40391L5.63678 11.2344C4.84597 12.3548 3.26351 12.6452 2.10055 11.8833C0.937597 11.1214 0.636174 9.59678 1.42698 8.47632L5.89988 2.13887C6.13714 1.80271 6.50328 1.57112 6.91776 1.49506C7.33224 1.41899 7.76111 1.50468 8.11002 1.73327C8.45893 1.96186 8.6993 2.31462 8.77825 2.71396C8.85719 3.11329 8.76826 3.52649 8.531 3.86265L4.77377 9.18611C4.57696 9.46495 4.17913 9.53796 3.88971 9.34835C3.60029 9.15873 3.52451 8.77544 3.72132 8.49659L7.12072 3.68013L6.33138 3.163L2.93198 7.97946C2.69473 8.31562 2.60579 8.72881 2.68474 9.12815C2.76369 9.52749 3.00406 9.88025 3.35296 10.1088C3.70187 10.3374 4.13074 10.4231 4.54522 10.347C4.9597 10.271 5.32585 10.0394 5.5631 9.70324L9.32034 4.37978C10.1111 3.25932 9.80972 1.73469 8.64677 0.972775C7.48381 0.210864 5.90135 0.501273 5.11054 1.62173L0.637646 7.95918C-0.450163 9.50045 -0.035917 11.5958 1.56381 12.6438C3.16353 13.6919 5.33831 13.2928 6.42611 11.7515L10.5412 5.92105L9.75184 5.40391Z" fill="#C4C4C4"/>
</svg>
