<svg width="48" height="48" viewBox="0 0 48 48" fill="none" xmlns="http://www.w3.org/2000/svg">
<g filter="url(#filter0_d_212_3792)">
<path d="M27.2528 16V13.0909H27.8679V14.2912H29.1165V13.0909H29.7301V16H29.1165V14.7983H27.8679V16H27.2528ZM29.6861 17.0909V20H29.1548L27.8892 18.169H27.8679V20H27.2528V17.0909H27.7926L29.0483 18.9205H29.0739V17.0909H29.6861Z" fill="black"/>
<path d="M42.9261 19.5455C42.9261 19.8627 42.866 20.1326 42.7457 20.3551C42.6264 20.5777 42.4635 20.7476 42.2571 20.8651C42.0516 20.9815 41.8205 21.0398 41.5639 21.0398C41.3054 21.0398 41.0734 20.9811 40.8679 20.8636C40.6624 20.7462 40.5 20.5762 40.3807 20.3537C40.2614 20.1312 40.2017 19.8617 40.2017 19.5455C40.2017 19.2282 40.2614 18.9583 40.3807 18.7358C40.5 18.5133 40.6624 18.3437 40.8679 18.2273C41.0734 18.1098 41.3054 18.0511 41.5639 18.0511C41.8205 18.0511 42.0516 18.1098 42.2571 18.2273C42.4635 18.3437 42.6264 18.5133 42.7457 18.7358C42.866 18.9583 42.9261 19.2282 42.9261 19.5455ZM42.3026 19.5455C42.3026 19.34 42.2718 19.1667 42.2102 19.0256C42.1496 18.8845 42.0639 18.7775 41.9531 18.7045C41.8423 18.6316 41.7126 18.5952 41.5639 18.5952C41.4152 18.5952 41.2855 18.6316 41.1747 18.7045C41.0639 18.7775 40.9777 18.8845 40.9162 19.0256C40.8556 19.1667 40.8253 19.34 40.8253 19.5455C40.8253 19.7509 40.8556 19.9242 40.9162 20.0653C40.9777 20.2064 41.0639 20.3134 41.1747 20.3864C41.2855 20.4593 41.4152 20.4957 41.5639 20.4957C41.7126 20.4957 41.8423 20.4593 41.9531 20.3864C42.0639 20.3134 42.1496 20.2064 42.2102 20.0653C42.2718 19.9242 42.3026 19.7509 42.3026 19.5455Z" fill="black"/>
<path d="M15.9261 11.5455C15.9261 11.8627 15.866 12.1326 15.7457 12.3551C15.6264 12.5777 15.4635 12.7476 15.2571 12.8651C15.0516 12.9815 14.8205 13.0398 14.5639 13.0398C14.3054 13.0398 14.0734 12.9811 13.8679 12.8636C13.6624 12.7462 13.5 12.5762 13.3807 12.3537C13.2614 12.1312 13.2017 11.8617 13.2017 11.5455C13.2017 11.2282 13.2614 10.9583 13.3807 10.7358C13.5 10.5133 13.6624 10.3437 13.8679 10.2273C14.0734 10.1098 14.3054 10.0511 14.5639 10.0511C14.8205 10.0511 15.0516 10.1098 15.2571 10.2273C15.4635 10.3437 15.6264 10.5133 15.7457 10.7358C15.866 10.9583 15.9261 11.2282 15.9261 11.5455ZM15.3026 11.5455C15.3026 11.34 15.2718 11.1667 15.2102 11.0256C15.1496 10.8845 15.0639 10.7775 14.9531 10.7045C14.8423 10.6316 14.7126 10.5952 14.5639 10.5952C14.4152 10.5952 14.2855 10.6316 14.1747 10.7045C14.0639 10.7775 13.9777 10.8845 13.9162 11.0256C13.8556 11.1667 13.8253 11.34 13.8253 11.5455C13.8253 11.7509 13.8556 11.9242 13.9162 12.0653C13.9777 12.2064 14.0639 12.3134 14.1747 12.3864C14.2855 12.4593 14.4152 12.4957 14.5639 12.4957C14.7126 12.4957 14.8423 12.4593 14.9531 12.3864C15.0639 12.3134 15.1496 12.2064 15.2102 12.0653C15.2718 11.9242 15.3026 11.7509 15.3026 11.5455Z" fill="black"/>
<path d="M4.25284 23V20.0909H4.8679V21.2912H6.11648V20.0909H6.73011V23H6.11648V21.7983H4.8679V23H4.25284ZM9.91051 21.5455C9.91051 21.8627 9.85038 22.1326 9.73011 22.3551C9.6108 22.5777 9.44792 22.7476 9.24148 22.8651C9.03598 22.9815 8.80492 23.0398 8.5483 23.0398C8.28977 23.0398 8.05777 22.9811 7.85227 22.8636C7.64678 22.7462 7.48438 22.5762 7.36506 22.3537C7.24574 22.1312 7.18608 21.8617 7.18608 21.5455C7.18608 21.2282 7.24574 20.9583 7.36506 20.7358C7.48438 20.5133 7.64678 20.3437 7.85227 20.2273C8.05777 20.1098 8.28977 20.0511 8.5483 20.0511C8.80492 20.0511 9.03598 20.1098 9.24148 20.2273C9.44792 20.3437 9.6108 20.5133 9.73011 20.7358C9.85038 20.9583 9.91051 21.2282 9.91051 21.5455ZM9.28693 21.5455C9.28693 21.34 9.25616 21.1667 9.1946 21.0256C9.134 20.8845 9.0483 20.7775 8.9375 20.7045C8.8267 20.6316 8.69697 20.5952 8.5483 20.5952C8.39962 20.5952 8.26989 20.6316 8.15909 20.7045C8.0483 20.7775 7.96212 20.8845 7.90057 21.0256C7.83996 21.1667 7.80966 21.34 7.80966 21.5455C7.80966 21.7509 7.83996 21.9242 7.90057 22.0653C7.96212 22.2064 8.0483 22.3134 8.15909 22.3864C8.26989 22.4593 8.39962 22.4957 8.5483 22.4957C8.69697 22.4957 8.8267 22.4593 8.9375 22.3864C9.0483 22.3134 9.134 22.2064 9.1946 22.0653C9.25616 21.9242 9.28693 21.7509 9.28693 21.5455Z" fill="black"/>
<line x1="27.9012" y1="34.9351" x2="27.9012" y2="39.9772" stroke="black" stroke-width="0.5"/>
<line x1="29.7023" y1="34.9351" x2="29.7023" y2="39.9772" stroke="black" stroke-width="0.5"/>
<line x1="23.219" y1="23.77" x2="23.219" y2="30.6129" stroke="black" stroke-width="0.5"/>
<path d="M25.6703 20.709L21.7086 23.05V31.3335L28.7316 35.2952L32.6933 33.1343" stroke="black" stroke-width="0.5"/>
<path d="M10.7241 21.2487L14.5057 18.9077L21.7088 23.0495" stroke="black" stroke-width="0.5"/>
<path d="M13.7856 14.0459V19.2681" stroke="black" stroke-width="0.5"/>
<path d="M15.2259 14.0459V19.2681" stroke="black" stroke-width="0.5"/>
<path d="M31.7931 20.709C31.9372 20.709 34.4943 22.2696 35.7548 23.05V27.5519" stroke="black" stroke-width="0.5"/>
<line x1="35.0889" y1="22.4735" x2="39.4108" y2="19.9524" stroke="black" stroke-width="0.5"/>
<line x1="35.8091" y1="23.9139" x2="40.1309" y2="21.3929" stroke="black" stroke-width="0.5"/>
</g>
<circle cx="24.5" cy="23.5" r="23.25" stroke="black" stroke-width="0.5"/>
<defs>
<filter id="filter0_d_212_3792" x="0.252838" y="10.0513" width="46.6733" height="37.9258" filterUnits="userSpaceOnUse" color-interpolation-filters="sRGB">
<feFlood flood-opacity="0" result="BackgroundImageFix"/>
<feColorMatrix in="SourceAlpha" type="matrix" values="0 0 0 0 0 0 0 0 0 0 0 0 0 0 0 0 0 0 127 0" result="hardAlpha"/>
<feOffset dy="4"/>
<feGaussianBlur stdDeviation="2"/>
<feComposite in2="hardAlpha" operator="out"/>
<feColorMatrix type="matrix" values="0 0 0 0 0 0 0 0 0 0 0 0 0 0 0 0 0 0 0.25 0"/>
<feBlend mode="normal" in2="BackgroundImageFix" result="effect1_dropShadow_212_3792"/>
<feBlend mode="normal" in="SourceGraphic" in2="effect1_dropShadow_212_3792" result="shape"/>
</filter>
</defs>
</svg>
