<svg width="21" height="21" viewBox="0 0 21 21" fill="none" xmlns="http://www.w3.org/2000/svg">
<path d="M6.98269 6.95C7.09936 7.03333 7.22036 7.054 7.34569 7.012C7.47036 6.97067 7.57436 6.89167 7.65769 6.775L9.63269 3.525L8.15769 1.075C7.95769 0.741667 7.67036 0.575 7.29569 0.575C6.92036 0.575 6.63269 0.741667 6.43269 1.075L4.23269 4.725C4.14936 4.84167 4.12869 4.96233 4.17069 5.087C4.21203 5.21233 4.29103 5.31667 4.40769 5.4L6.98269 6.95ZM17.0827 14L15.1327 10.725C15.066 10.5917 15.0494 10.4623 15.0827 10.337C15.116 10.2123 15.191 10.1167 15.3077 10.05L17.9077 8.55C18.0244 8.48333 18.145 8.46667 18.2697 8.5C18.395 8.53333 18.4994 8.60833 18.5827 8.725L19.9327 10.975C20.116 11.2583 20.212 11.5793 20.2207 11.938C20.2287 12.296 20.1577 12.6167 20.0077 12.9C19.841 13.2333 19.595 13.5 19.2697 13.7C18.945 13.9 18.591 14 18.2077 14H17.0827ZM13.3577 20.15L10.5577 17.35C10.4577 17.25 10.4077 17.1333 10.4077 17C10.4077 16.8667 10.4577 16.75 10.5577 16.65L13.3577 13.85C13.5244 13.6833 13.7077 13.6417 13.9077 13.725C14.1077 13.8083 14.2077 13.9667 14.2077 14.2V15H18.9577L17.5077 17.9C17.3244 18.2333 17.0744 18.5 16.7577 18.7C16.441 18.9 16.091 19 15.7077 19H14.2077V19.8C14.2077 20.0333 14.1077 20.1917 13.9077 20.275C13.7077 20.3583 13.5244 20.3167 13.3577 20.15V20.15ZM4.53269 19C4.19936 19 3.89503 18.9127 3.61969 18.738C3.34503 18.5627 3.14103 18.3333 3.00769 18.05C2.87436 17.7833 2.81203 17.504 2.82069 17.212C2.82869 16.9207 2.90769 16.65 3.05769 16.4L3.90769 15H7.70769C7.84103 15 7.95769 15.05 8.05769 15.15C8.15769 15.25 8.20769 15.3667 8.20769 15.5V18.5C8.20769 18.6333 8.15769 18.75 8.05769 18.85C7.95769 18.95 7.84103 19 7.70769 19H4.53269ZM2.05769 16.15L0.432692 12.9C0.282692 12.6 0.212026 12.2793 0.220692 11.938C0.228692 11.596 0.324359 11.275 0.507692 10.975L0.907692 10.3L0.232692 9.9C0.0493591 9.78333 -0.025641 9.61233 0.0076923 9.387C0.0410256 9.16233 0.166026 9.025 0.382692 8.975L4.20769 8.025C4.34103 7.99167 4.46603 8.00833 4.58269 8.075C4.69936 8.14167 4.77436 8.24167 4.80769 8.375L5.75769 12.225C5.79103 12.3417 5.78703 12.4457 5.74569 12.537C5.70369 12.629 5.64536 12.704 5.57069 12.762C5.49536 12.8207 5.40769 12.8543 5.30769 12.863C5.20769 12.871 5.10769 12.8417 5.00769 12.775L4.33269 12.35L2.05769 16.15ZM15.0827 7.475L11.2577 6.525C11.041 6.475 10.9204 6.33733 10.8957 6.112C10.8704 5.88733 10.9494 5.71667 11.1327 5.6L11.8077 5.2L8.68269 0H12.2077C12.5577 0 12.887 0.0873334 13.1957 0.262C13.5037 0.437333 13.7494 0.675 13.9327 0.975L15.2327 3.15L15.8827 2.75C15.9827 2.68333 16.0827 2.654 16.1827 2.662C16.2827 2.67067 16.3704 2.704 16.4457 2.762C16.5204 2.82067 16.5787 2.89567 16.6207 2.987C16.662 3.079 16.666 3.18333 16.6327 3.3L15.6827 7.125C15.6494 7.25833 15.5744 7.35833 15.4577 7.425C15.341 7.49167 15.216 7.50833 15.0827 7.475V7.475Z" fill="black"/>
</svg>
